<svg id="visual" viewBox="0 0 540 960" width="540" height="960" xmlns="http://www.w3.org/2000/svg" xmlns:xlink="http://www.w3.org/1999/xlink" version="1.1"><rect width="540" height="960" fill="#504c3b"></rect><g><g transform="translate(537 102)"><path d="M0 -98.4L85.2 -49.2L85.2 49.2L0 98.4L-85.2 49.2L-85.2 -49.2Z" fill="none" stroke="#CC9933" stroke-width="1"></path></g><g transform="translate(434 832)"><path d="M0 -27L23.4 -13.5L23.4 13.5L0 27L-23.4 13.5L-23.4 -13.5Z" fill="none" stroke="#CC9933" stroke-width="1"></path></g><g transform="translate(153 635)"><path d="M0 -49L42.4 -24.5L42.4 24.5L0 49L-42.4 24.5L-42.4 -24.5Z" fill="none" stroke="#CC9933" stroke-width="1"></path></g><g transform="translate(485 356)"><path d="M0 -59L51.1 -29.5L51.1 29.5L0 59L-51.1 29.5L-51.1 -29.5Z" stroke="#CC9933" fill="none" stroke-width="1"></path></g><g transform="translate(310 481)"><path d="M0 -72L62.4 -36L62.4 36L0 72L-62.4 36L-62.4 -36Z" stroke="#CC9933" fill="none" stroke-width="1"></path></g><g transform="translate(233 270)"><path d="M0 -42L36.4 -21L36.4 21L0 42L-36.4 21L-36.4 -21Z" stroke="#CC9933" fill="none" stroke-width="1"></path></g><g transform="translate(21 137)"><path d="M0 -97L84 -48.5L84 48.5L0 97L-84 48.5L-84 -48.5Z" stroke="#CC9933" fill="none" stroke-width="1"></path></g><g transform="translate(52 952)"><path d="M0 -52L45 -26L45 26L0 52L-45 26L-45 -26Z" stroke="#CC9933" fill="none" stroke-width="1"></path></g><g transform="translate(476 598)"><path d="M0 -92L79.7 -46L79.7 46L0 92L-79.7 46L-79.7 -46Z" stroke="#CC9933" fill="none" stroke-width="1"></path></g><g transform="translate(254 924)"><path d="M0 -19L16.5 -9.5L16.5 9.5L0 19L-16.5 9.5L-16.5 -9.5Z" stroke="#CC9933" fill="none" stroke-width="1"></path></g><g transform="translate(353 3)"><path d="M0 -86L74.5 -43L74.5 43L0 86L-74.5 43L-74.5 -43Z" stroke="#CC9933" fill="none" stroke-width="1"></path></g><g transform="translate(49 437)"><path d="M0 -49L42.4 -24.5L42.4 24.5L0 49L-42.4 24.5L-42.4 -24.5Z" stroke="#CC9933" fill="none" stroke-width="1"></path></g></g></svg>